<svg xmlns="http://www.w3.org/2000/svg" viewBox="0 0 434.2 84.96" class="logo_estgames">
    <defs>
        <style>
        .path{fill:#fff}
        </style>
    </defs>
    <g>
        <path class="path"
            d="M111.05,33.21c-2.87-3.61-10.43-7.8-15-10.12-8.8-4.5-10.21-6.63-10-9,.4-4.22,5.26-5.44,9.91-5.44h20.89l2-8.63H94.11c-19.61,0-28.9,9.59-29,19.27-.06,7,4.81,11.15,7.86,13.13,4,2.6,11.86,7.22,17,10.3,2.49,1.47,4.88,3.77,4.13,7.33-.72,3.35-4.48,7.14-12.42,7.14H57l-2,8.6H81.68c10.6.06,19-2.38,25-7.26C116.75,50.43,117,40.64,111.05,33.21Z" />
        <polygon class="path"
            points="184.2 0 125.9 0 123.92 8.6 143.67 8.6 130.47 65.79 151.11 65.79 164.31 8.6 182.21 8.6 184.2 0" />
        <path class="path"
            d="M6.25,20.51.53,45.29C-2.08,56.55,5.18,65.68,16.72,65.78H48l2-8.6H25.78c-4.05,0-6.54-3.52-5.55-7.82l3.41-14.8H50.87l2-8.61H25.63l2.2-9.51c1-4.32,5.14-7.84,9.27-7.84H61.24l2-8.6H32.09C15.88,0,9.29,7.41,6.25,20.51Z" />
        <path class="path"
            d="M433.92,21.52a7.37,7.37,0,0,1-2.58,4.05,7.05,7.05,0,0,1-4.42,1.68h-6.27c-5.87,0-7.75,2-8.19,4s1,2.95,5.53,5.69l2.77,1.7c5.44,3.27,10.22,7.1,9,13.65-1.56,8.46-10,13.48-21.43,13.48h-15l.38-1.71A7.4,7.4,0,0,1,396.24,60a7,7,0,0,1,4.43-1.68h8.78c4.28,0,7.2-1.05,8.12-3.9,1-3.1-1.74-4.79-6.19-7.81L408.94,45c-6.17-4.26-9.3-8-7.83-13.31,1.52-5.48,7.47-11.43,19.83-11.43H434.2Z" />
        <path class="path"
            d="M264.76,65.79H253.65l3-12.87C254,57,248,66.69,237.41,66.69c-7.7,0-11.68-5.43-11.71-12.59-.07-13.49,11.59-34,33.82-34a42.45,42.45,0,0,1,15.19,3ZM238.2,54.1c0,2.27,1.2,5.35,4.41,5.35,4.38,0,8.84-5.43,11.28-10.42a120.26,120.26,0,0,0,8.23-22.64,13,13,0,0,0-4.39-.63C246,25.76,238.16,44,238.2,54Z" />
        <path class="path"
            d="M296.24,20.81l-2.72,12.05c3-4.89,9.34-12.95,18.64-12.95,5.67,0,9.74,2.89,9.76,8.06a18.08,18.08,0,0,1-.61,4.62c2.33-3.36,8.7-12.68,19.28-12.68,5.34,0,10,2.62,10,8.42a32.81,32.81,0,0,1-1.14,7.24l-7.15,30.22H330.21l7-29.76a29.16,29.16,0,0,0,.93-5.89,2.87,2.87,0,0,0-3.22-3c-5.45,0-9.9,7.7-11.28,10.05-4.34,7.88-7.31,19.26-9.51,28.59H302.42l7-29.85a31.49,31.49,0,0,0,.83-5.71c0-1.72-1-3.08-3.33-3.08-3.95,0-7.46,4.17-9.69,7.52-5,7.52-8.16,19.43-10.89,31.12H274.53l10.6-45Z" />
        <path class="path"
            d="M387.91,58.05c-.22,2.41-3,4.69-5.79,6a27.87,27.87,0,0,1-12.2,2.63c-9.61,0-17.35-5.16-17.4-14.22-.07-14.12,16.64-32.33,34.06-32.33,8.23,0,11,4.26,11.05,8.24,0,6.17-4.65,10-10.84,12.23s-14.86,3.39-20.1,3.63A23.79,23.79,0,0,0,365,52.92c0,3.82,3.36,7.35,8.06,7.35,3.11,0,7.73-1.35,14-4.81C387.07,55.46,388.11,55.87,387.91,58.05Zm-.11-29.12c0-1.9-1.19-3.35-3.65-3.35-3.52,0-11,3.71-15.87,13.85,5.76-.33,19.56-2,19.52-10.41Z" />
        <path class="path"
            d="M218.51,52.15c1.19-4.95,6.77-29,6.77-29a42.55,42.55,0,0,0-15.2-3c-22.22,0-33.47,19.39-33.4,32.89,0,7.15,4,12.58,11.71,12.58,9.45,0,17.46-9.86,19.66-14.58,0,0-2.36,7.89-3,10.22-2.83,9.85-8.28,15.29-15.65,16-4.38.44-10.11-.76-12.7-2.32l-2.11,5.37c6.24,4.67,22.21,7.76,31.45-.62C211.61,74.63,214.9,67.1,218.51,52.15Zm-13.64-4.44c-2.43,5-6.89,10.65-11.28,10.65-3.2,0-4.39-3.08-4.4-5.33v-.11c-.05-10.05,7.35-27.16,19.11-27.16a12.91,12.91,0,0,1,4.38.63A104.78,104.78,0,0,1,204.87,47.71Z" />
    </g>
</svg>