<svg id="img_main" xmlns="http://www.w3.org/2000/svg" width="394" height="168.25" viewBox="0 0 394 168.25">
    <path fill="#fff" d="M653.274,490.119l30.99-33.5H662.84l-27.5,30.3v-30.3H617v70.5h18.335v-31.9l28.3,31.9H685.36Zm51.617,37v-70.5H686.556v70.5h18.335Zm48.527-30.4-21.125-40.1H717.844v70.5h15.944l0.1-36.4,13.452,24.7H759.1l13.552-25.3v37h15.944v-70.5h-14.15Z" transform="translate(-617 -456.031)"/>
    <path fill="#fff" d="M667.3,623.374v-14.2H635.211v-14.6h30.094v-14.1H635.211v-13.4H667.3v-14.2H617.375v70.5H667.3Zm40.255,0.9q15.147,0,23.168-7.85t8.022-22.75v-40.8H720.707v41.5q0,7.6-3.388,11.7t-9.766,4.1q-6.378,0-9.765-4.1t-3.388-11.7v-41.5H676.464v40.8q0,15,7.922,22.8t23.167,7.8h0Zm76.927-40.7v12.6h12.357v13.1a45.2,45.2,0,0,1-9.467,1q-9.966,0-14.8-5.45t-4.833-16.75q0-11,4.633-16.3t14.1-5.3a31.933,31.933,0,0,1,9.566,1.4,37.9,37.9,0,0,1,9.367,4.6l5.68-13a30.263,30.263,0,0,0-10.911-5.5,50.3,50.3,0,0,0-14.4-2,40.28,40.28,0,0,0-19.282,4.4,30.719,30.719,0,0,0-12.705,12.6,39.194,39.194,0,0,0-4.484,19.1q0,11.2,4.484,19.35a30.193,30.193,0,0,0,12.9,12.5q8.42,4.35,19.88,4.35a72.263,72.263,0,0,0,14.249-1.4,53.574,53.574,0,0,0,12.456-4v-35.3h-28.8Zm90.678,39.8v-14.2H843.071v-14.6h30.094v-14.1H843.071v-13.4h32.087v-14.2H825.235v70.5h49.923Zm55.1-30.2-32.186-40.3H884.722v70.5h17.04v-40.3l32.086,40.3H947.4v-70.5H930.261v40.3Zm79.819,30.2v-14.2H977.991v-14.6h30.089v-14.1H977.991v-13.4h32.089v-14.2H960.154v70.5h49.926Z" transform="translate(-617 -456.031)"/>
    <path fill="#f04c4d" d="M977.529,469.848c-17.245,12.484-31.958,12.484-49.206,0-11.247-8.146-20.848-8.146-32.093,0-17.086,12.363-31.02,12.363-48.1,0-11.372-8.236-19.054-8.236-30.434,0L813,463.808c13.827-10.01,25.445-10.41,39.821,0,13.551,9.81,23.554,10.973,38.718,0,14.375-10.41,27.741-9.942,41.479,0,14.1,10.21,25.166,10.61,39.82,0,14.383-10.41,23.786-10.41,38.162,0l-4.7,6.04C994.747,461.475,989.1,461.475,977.529,469.848Z" transform="translate(-617 -456.031)"/>
    <path fill="#f04c4d" d="M977.529,493.256c-17.245,12.485-31.958,12.485-49.206,0-11.247-8.146-20.848-8.146-32.093,0-17.086,12.364-31.02,12.364-48.1,0-11.372-8.235-19.054-8.235-30.434,0L813,487.216c13.827-10.01,25.445-10.41,39.821,0,13.551,9.81,23.554,10.974,38.718,0,14.375-10.41,27.741-9.941,41.479,0,14.1,10.21,25.166,10.611,39.82,0,14.383-10.41,23.786-10.41,38.162,0l-4.7,6.04C994.747,484.884,989.1,484.884,977.529,493.256Z" transform="translate(-617 -456.031)"/>
    <path fill="#f04c4d" d="M977.529,517.608c-17.245,12.485-31.958,12.485-49.206,0-11.247-8.146-20.848-8.146-32.093,0-17.086,12.364-31.02,12.364-48.1,0-11.372-8.235-19.054-8.235-30.434,0L813,511.568c13.827-10.01,25.445-10.41,39.821,0,13.551,9.81,23.554,10.974,38.718,0,14.375-10.41,27.741-9.941,41.479,0,14.1,10.21,25.166,10.611,39.82,0,14.383-10.41,23.786-10.41,38.162,0l-4.7,6.04C994.747,509.236,989.1,509.236,977.529,517.608Z" transform="translate(-617 -456.031)"/>
</svg>
